<svg data-v-fde0c5aa="" xmlns="http://www.w3.org/2000/svg" viewBox="0 0 300 300" class="iconLeftSlogan"><!----><defs data-v-fde0c5aa=""><!----></defs><rect data-v-fde0c5aa="" fill="transparent" x="0" y="0" width="300px" height="300px" class="logo-background-square"></rect><defs data-v-fde0c5aa=""><!----></defs><g data-v-fde0c5aa="" id="c406cb56-fe02-4a6a-b809-c5949b9103ae" fill="#000000" transform="matrix(1.603297700376975,0,0,1.603297700376975,119.42286297106257,127.27783283925012)"><path d="M5.61 12.69L5.61 12.69Q4.22 12.69 3.09 12.09L3.09 12.09L3.09 12.09Q1.96 11.50 1.31 10.47L1.31 10.47L1.31 10.47Q0.66 9.43 0.66 8.20L0.66 8.20L0.66 8.20Q0.66 6.95 1.32 5.86L1.32 5.86L1.32 5.86Q1.98 4.77 3.13 4.13L3.13 4.13L3.13 4.13Q4.28 3.49 5.65 3.49L5.65 3.49L5.65 3.49Q7.29 3.49 8.67 3.75L8.67 3.75L9.06 5.70L8.79 5.87L8.64 5.82L7.78 4.47L7.78 4.47Q7.04 3.90 5.76 3.90L5.76 3.90L5.76 3.90Q4.69 3.90 3.94 4.46L3.94 4.46L3.94 4.46Q3.20 5.03 2.83 5.95L2.83 5.95L2.83 5.95Q2.46 6.86 2.46 7.89L2.46 7.89L2.46 7.89Q2.46 9.02 2.86 10.03L2.86 10.03L2.86 10.03Q3.25 11.03 4.05 11.66L4.05 11.66L4.05 11.66Q4.84 12.28 5.97 12.28L5.97 12.28L5.97 12.28Q6.84 12.28 7.51 11.96L7.51 11.96L7.63 11.73L7.63 10.23L7.56 9.31L6.54 9.02L6.52 8.74L10.17 8.74L10.17 9.02L9.28 9.23L9.16 10.08L9.16 11.31L9.26 11.74L8.89 12.02L8.89 12.02Q8.12 12.35 7.41 12.52L7.41 12.52L7.41 12.52Q6.70 12.69 5.61 12.69L5.61 12.69ZM12.84 12.74L12.84 12.74Q12.35 12.74 11.94 12.52L11.94 12.52L11.94 12.52Q11.53 12.30 11.29 11.94L11.29 11.94L11.29 11.94Q11.05 11.57 11.05 11.17L11.05 11.17L11.05 11.17Q11.05 10.80 11.28 10.51L11.28 10.51L11.28 10.51Q11.51 10.23 11.79 10.14L11.79 10.14L14.41 9.21L14.51 8.79L14.51 8.42L14.51 8.42Q14.51 7.83 14.28 7.50L14.28 7.50L14.28 7.50Q14.05 7.16 13.55 6.97L13.55 6.97L13.55 6.97Q12.96 7.07 12.72 7.25L12.72 7.25L12.72 7.25Q12.48 7.44 12.48 7.72L12.48 7.72L12.48 7.72Q12.48 7.90 12.54 8.10L12.54 8.10L12.54 8.10Q12.61 8.30 12.74 8.61L12.74 8.61L11.73 9.01L11.33 8.29L11.47 7.55L11.47 7.55Q11.81 7.26 12.58 6.95L12.58 6.95L12.58 6.95Q13.34 6.63 14.05 6.63L14.05 6.63L14.05 6.63Q14.53 6.63 14.95 6.88L14.95 6.88L14.95 6.88Q15.37 7.12 15.62 7.55L15.62 7.55L15.62 7.55Q15.87 7.98 15.87 8.53L15.87 8.53L15.87 11.31L16.21 11.83L16.82 11.70L16.97 12.00L15.75 12.74L15.75 12.74Q15.30 12.59 14.98 12.39L14.98 12.39L14.98 12.39Q14.66 12.18 14.53 11.83L14.53 11.83L14.53 11.83Q14.23 12.17 13.79 12.46L13.79 12.46L13.79 12.46Q13.36 12.74 12.84 12.74L12.84 12.74ZM13.63 12.09L14.51 11.51L14.51 9.53L13.29 9.99L13.29 9.99Q12.93 10.13 12.74 10.41L12.74 10.41L12.74 10.41Q12.54 10.69 12.54 11.03L12.54 11.03L12.54 11.03Q12.54 11.46 12.89 11.77L12.89 11.77L12.89 11.77Q13.25 12.09 13.63 12.09L13.63 12.09ZM20.32 12.71L20.32 12.71Q19.97 12.71 19.37 12.55L19.37 12.55L19.37 12.55Q19.06 12.46 18.87 12.44L18.87 12.44L18.13 12.46L17.91 12.18L18.09 10.86L18.09 4.91L17.98 4.17L17.08 3.92L17.09 3.64L19.47 3.13L19.62 3.29L19.46 4.55L19.46 7.11L19.59 7.33L21.21 6.63L21.21 6.63Q22.03 6.63 22.67 7.03L22.67 7.03L22.67 7.03Q23.31 7.44 23.67 8.07L23.67 8.07L23.67 8.07Q24.02 8.71 24.02 9.41L24.02 9.41L24.02 9.41Q24.02 10.38 23.50 11.13L23.50 11.13L23.50 11.13Q22.98 11.88 22.13 12.30L22.13 12.30L22.13 12.30Q21.29 12.71 20.32 12.71L20.32 12.71ZM20.67 12.32L20.67 12.32Q21.18 12.32 21.59 11.96L21.59 11.96L21.59 11.96Q22.00 11.61 22.23 11.06L22.23 11.06L22.23 11.06Q22.46 10.51 22.46 9.94L22.46 9.94L22.46 9.94Q22.46 8.75 21.94 8.07L21.94 8.07L21.94 8.07Q21.41 7.40 20.48 7.40L20.48 7.40L19.52 7.83L19.46 8.01L19.46 11.31L19.46 11.31Q19.46 11.73 19.82 12.02L19.82 12.02L19.82 12.02Q20.18 12.32 20.67 12.32L20.67 12.32ZM25.05 12.61L25.05 12.33L25.99 12.10L26.10 10.90L26.10 8.75L25.99 7.78L25.03 7.52L25.03 7.25L27.43 6.62L27.56 6.79L27.45 7.98L27.56 8.04L27.56 8.04Q27.85 7.49 28.32 7.06L28.32 7.06L28.32 7.06Q28.79 6.63 29.34 6.63L29.34 6.63L29.34 6.63Q29.61 6.63 29.85 6.71L29.85 6.71L29.85 6.71Q30.09 6.79 30.20 6.92L30.20 6.92L30.31 7.40L29.68 8.22L29.12 7.88L29.12 7.88Q28.98 7.78 28.86 7.74L28.86 7.74L28.86 7.74Q28.74 7.70 28.53 7.70L28.53 7.70L28.53 7.70Q28.23 7.70 27.99 7.92L27.99 7.92L27.99 7.92Q27.74 8.15 27.60 8.46L27.60 8.46L27.60 8.46Q27.45 8.76 27.45 8.94L27.45 8.94L27.45 10.90L27.55 12.10L28.66 12.33L28.66 12.61L25.05 12.61ZM32.50 5.03L32.50 5.03Q32.14 5.03 31.90 4.81L31.90 4.81L31.90 4.81Q31.65 4.59 31.65 4.28L31.65 4.28L31.65 4.28Q31.65 3.96 31.90 3.73L31.90 3.73L31.90 3.73Q32.16 3.50 32.50 3.50L32.50 3.50L32.50 3.50Q32.85 3.50 33.11 3.73L33.11 3.73L33.11 3.73Q33.36 3.96 33.36 4.28L33.36 4.28L33.36 4.28Q33.36 4.59 33.11 4.81L33.11 4.81L33.11 4.81Q32.85 5.03 32.50 5.03L32.50 5.03ZM30.87 12.61L30.87 12.33L31.81 12.10L31.92 10.90L31.92 8.68L31.81 7.71L30.86 7.45L30.86 7.18L33.29 6.55L33.46 6.73L33.35 7.55L33.35 10.90L33.43 12.10L34.33 12.33L34.33 12.61L30.87 12.61ZM38.09 12.71L38.09 12.71Q37.30 12.71 36.62 12.36L36.62 12.36L36.62 12.36Q35.94 12.00 35.55 11.35L35.55 11.35L35.55 11.35Q35.15 10.71 35.15 9.88L35.15 9.88L35.15 9.88Q35.15 8.85 35.59 8.11L35.59 8.11L35.59 8.11Q36.03 7.37 36.72 7L36.72 7L36.72 7Q37.41 6.63 38.13 6.63L38.13 6.63L38.13 6.63Q39.39 6.63 39.92 7.24L39.92 7.24L39.92 7.24Q40.44 7.85 40.44 8.83L40.44 8.83L40.28 9.15L36.50 9.15L36.50 9.21L36.50 9.21Q36.50 10.12 36.84 10.71L36.84 10.71L36.84 10.71Q37.17 11.29 37.69 11.57L37.69 11.57L37.69 11.57Q38.20 11.84 38.72 11.84L38.72 11.84L40.28 11.10L40.41 11.53L39.10 12.51L39.10 12.51Q38.58 12.71 38.09 12.71L38.09 12.71ZM36.56 8.78L38.87 8.78L39.03 8.41L39.03 8.41Q39.03 8.13 38.92 7.81L38.92 7.81L38.92 7.81Q38.80 7.48 38.55 7.25L38.55 7.25L38.55 7.25Q38.31 7.01 37.94 7.01L37.94 7.01L37.94 7.01Q37.45 7.01 37.14 7.36L37.14 7.36L37.14 7.36Q36.83 7.70 36.69 8.11L36.69 8.11L36.69 8.11Q36.54 8.53 36.56 8.71L36.56 8.71L36.56 8.78ZM41.30 12.61L41.30 12.33L42.25 12.10L42.36 10.90L42.36 4.91L42.26 4.17L41.34 3.92L41.36 3.64L43.76 3.13L43.91 3.29L43.76 4.55L43.76 10.90L43.86 12.10L44.80 12.33L44.80 12.61L41.30 12.61ZM48.22 12.61L48.21 12.32L49.14 11.99L49.77 10.84L52.76 4.05L53.27 3.64L53.40 3.66L56.79 11.80L57.87 12.30L57.87 12.61L54.26 12.61L54.26 12.32L55.10 12.11L55.22 11.85L54.26 9.37L54.15 9.28L51.12 9.31L51.00 9.39L50.39 10.87L50.11 11.89L51.17 12.30L51.19 12.61L48.22 12.61ZM51.35 8.76L53.88 8.76L53.96 8.63L52.66 5.51L51.27 8.64L51.35 8.76ZM58.17 12.61L58.17 12.33L59.12 12.10L59.23 10.90L59.23 4.91L59.13 4.17L58.21 3.92L58.23 3.64L60.63 3.13L60.79 3.29L60.63 4.55L60.63 10.90L60.73 12.10L61.67 12.33L61.67 12.61L58.17 12.61ZM62.28 12.61L62.28 12.33L63.22 12.10L63.33 10.90L63.33 4.91L63.23 4.17L62.32 3.92L62.33 3.64L64.74 3.13L64.89 3.29L64.74 4.55L64.74 10.90L64.83 12.10L65.78 12.33L65.78 12.61L62.28 12.61ZM69.51 12.71L69.51 12.71Q68.71 12.71 68.04 12.36L68.04 12.36L68.04 12.36Q67.36 12.00 66.96 11.35L66.96 11.35L66.96 11.35Q66.57 10.71 66.57 9.88L66.57 9.88L66.57 9.88Q66.57 8.85 67.01 8.11L67.01 8.11L67.01 8.11Q67.44 7.37 68.13 7L68.13 7L68.13 7Q68.82 6.63 69.55 6.63L69.55 6.63L69.55 6.63Q70.81 6.63 71.33 7.24L71.33 7.24L71.33 7.24Q71.86 7.85 71.86 8.83L71.86 8.83L71.70 9.15L67.92 9.15L67.92 9.21L67.92 9.21Q67.92 10.12 68.26 10.71L68.26 10.71L68.26 10.71Q68.59 11.29 69.10 11.57L69.10 11.57L69.10 11.57Q69.62 11.84 70.14 11.84L70.14 11.84L71.70 11.10L71.83 11.53L70.52 12.51L70.52 12.51Q70 12.71 69.51 12.71L69.51 12.71ZM67.98 8.78L70.29 8.78L70.45 8.41L70.45 8.41Q70.45 8.13 70.33 7.81L70.33 7.81L70.33 7.81Q70.22 7.48 69.97 7.25L69.97 7.25L69.97 7.25Q69.73 7.01 69.36 7.01L69.36 7.01L69.36 7.01Q68.87 7.01 68.56 7.36L68.56 7.36L68.56 7.36Q68.25 7.70 68.11 8.11L68.11 8.11L68.11 8.11Q67.96 8.53 67.98 8.71L67.98 8.71L67.98 8.78ZM74.94 12.74L73.25 12.48L73.09 10.99L73.42 10.99L74.06 11.98L74.06 11.98Q74.55 12.32 75.11 12.32L75.11 12.32L75.11 12.32Q75.58 12.32 75.86 12.07L75.86 12.07L75.86 12.07Q76.14 11.83 76.14 11.42L76.14 11.42L76.14 11.42Q76.14 10.96 75.83 10.71L75.83 10.71L75.83 10.71Q75.52 10.46 74.88 10.16L74.88 10.16L74.42 9.93L74.42 9.93Q73.73 9.56 73.40 9.24L73.40 9.24L73.40 9.24Q73.08 8.93 73.08 8.39L73.08 8.39L73.08 8.39Q73.08 7.85 73.43 7.44L73.43 7.44L73.43 7.44Q73.79 7.04 74.35 6.84L74.35 6.84L74.35 6.84Q74.91 6.63 75.50 6.63L75.50 6.63L77.04 6.85L77.27 8.31L76.95 8.31L76.40 7.42L76.40 7.42Q76.00 7.05 75.44 7.05L75.44 7.05L75.44 7.05Q74.96 7.05 74.68 7.27L74.68 7.27L74.68 7.27Q74.40 7.49 74.40 7.89L74.40 7.89L74.40 7.89Q74.40 8.23 74.72 8.48L74.72 8.48L74.72 8.48Q75.04 8.72 75.41 8.90L75.41 8.90L75.41 8.90Q75.77 9.08 75.88 9.13L75.88 9.13L75.88 9.13Q76.44 9.42 76.73 9.60L76.73 9.60L76.73 9.60Q77.03 9.79 77.26 10.11L77.26 10.11L77.26 10.11Q77.49 10.43 77.49 10.88L77.49 10.88L77.49 10.88Q77.49 11.76 76.75 12.25L76.75 12.25L76.75 12.25Q76.02 12.74 74.94 12.74L74.94 12.74ZM80.60 12.74L78.91 12.48L78.75 10.99L79.08 10.99L79.72 11.98L79.72 11.98Q80.21 12.32 80.77 12.32L80.77 12.32L80.77 12.32Q81.24 12.32 81.52 12.07L81.52 12.07L81.52 12.07Q81.80 11.83 81.80 11.42L81.80 11.42L81.80 11.42Q81.80 10.96 81.49 10.71L81.49 10.71L81.49 10.71Q81.18 10.46 80.54 10.16L80.54 10.16L80.08 9.93L80.08 9.93Q79.39 9.56 79.06 9.24L79.06 9.24L79.06 9.24Q78.74 8.93 78.74 8.39L78.74 8.39L78.74 8.39Q78.74 7.85 79.09 7.44L79.09 7.44L79.09 7.44Q79.45 7.04 80.01 6.84L80.01 6.84L80.01 6.84Q80.57 6.63 81.16 6.63L81.16 6.63L82.70 6.85L82.93 8.31L82.61 8.31L82.06 7.42L82.06 7.42Q81.66 7.05 81.10 7.05L81.10 7.05L81.10 7.05Q80.62 7.05 80.34 7.27L80.34 7.27L80.34 7.27Q80.06 7.49 80.06 7.89L80.06 7.89L80.06 7.89Q80.06 8.23 80.38 8.48L80.38 8.48L80.38 8.48Q80.71 8.72 81.07 8.90L81.07 8.90L81.07 8.90Q81.43 9.08 81.54 9.13L81.54 9.13L81.54 9.13Q82.10 9.42 82.39 9.60L82.39 9.60L82.39 9.60Q82.69 9.79 82.92 10.11L82.92 10.11L82.92 10.11Q83.15 10.43 83.15 10.88L83.15 10.88L83.15 10.88Q83.15 11.76 82.41 12.25L82.41 12.25L82.41 12.25Q81.68 12.74 80.60 12.74L80.60 12.74ZM85.85 5.03L85.85 5.03Q85.49 5.03 85.24 4.81L85.24 4.81L85.24 4.81Q85.00 4.59 85.00 4.28L85.00 4.28L85.00 4.28Q85.00 3.96 85.25 3.73L85.25 3.73L85.25 3.73Q85.50 3.50 85.85 3.50L85.85 3.50L85.85 3.50Q86.20 3.50 86.45 3.73L86.45 3.73L86.45 3.73Q86.71 3.96 86.71 4.28L86.71 4.28L86.71 4.28Q86.71 4.59 86.45 4.81L86.45 4.81L86.45 4.81Q86.20 5.03 85.85 5.03L85.85 5.03ZM84.22 12.61L84.22 12.33L85.16 12.10L85.27 10.90L85.27 8.68L85.16 7.71L84.21 7.45L84.21 7.18L86.64 6.55L86.80 6.73L86.69 7.55L86.69 10.90L86.78 12.10L87.68 12.33L87.68 12.61L84.22 12.61Z"></path></g><defs data-v-fde0c5aa=""><linearGradient data-v-fde0c5aa="" gradientTransform="rotate(25)" id="f9ae3490-46d9-4ed5-8fd5-e29bb702b76a" x1="0%" y1="0%" x2="100%" y2="0%"><stop data-v-fde0c5aa="" offset="0%" stop-color="#007DE8" stop-opacity="1"></stop><stop data-v-fde0c5aa="" offset="100%" stop-color="#A1C3DB" stop-opacity="1"></stop></linearGradient></defs><g data-v-fde0c5aa="" id="124c97fa-506c-47c5-95b4-a77a3c84e524" stroke="none" fill="url(#f9ae3490-46d9-4ed5-8fd5-e29bb702b76a)" transform="matrix(2.1909428950297496,0,0,2.1909428950297496,29.9216597576388,106.07159662621028)"><path clip-rule="evenodd" d="M26.7 13.4L25.2 16l6.6 4-6.6 4 1.5 2.6 8.7-5.3v-2.6l-8.7-5.3zm-13.4 0l-8.7 5.3v2.6l8.7 5.3 1.5-2.6-6.6-4 6.6-4-1.5-2.6zm3 14.2l2.9.7 3.5-15.8-2.9-.7-3.5 15.8z"></path></g><defs data-v-fde0c5aa=""><!----></defs><g data-v-fde0c5aa="" id="9a3eeb91-2c21-49ec-87b9-bc50bfcf9de7" fill="#000000" transform="matrix(0.4617539276232044,0,0,0.4617539276232044,119.86690675180434,155.0810829454526)"><path d="M1.33 15.68L1.33 5.88L7.35 5.88L7.35 6.97L2.51 6.97L2.51 10.22L7.27 10.22L7.27 11.31L2.51 11.31L2.51 15.68L1.33 15.68ZM16.49 5.88L17.67 5.88L17.67 12.38L17.67 12.38Q17.67 13.57 18.22 14.17L18.22 14.17L18.22 14.17Q18.77 14.78 19.85 14.78L19.85 14.78L19.85 14.78Q20.93 14.78 21.48 14.17L21.48 14.17L21.48 14.17Q22.04 13.57 22.04 12.38L22.04 12.38L22.04 5.88L23.21 5.88L23.21 12.38L23.21 12.38Q23.21 14.08 22.32 14.98L22.32 14.98L22.32 14.98Q21.42 15.88 19.85 15.88L19.85 15.88L19.85 15.88Q18.28 15.88 17.39 14.98L17.39 14.98L17.39 14.98Q16.49 14.08 16.49 12.38L16.49 12.38L16.49 5.88ZM32.35 15.68L32.35 5.88L33.53 5.88L33.53 14.59L38.65 14.59L38.65 15.68L32.35 15.68ZM47.92 15.68L47.92 5.88L49.10 5.88L49.10 14.59L54.22 14.59L54.22 15.68L47.92 15.68ZM84.43 9.21L84.43 8.71L84.43 8.71Q84.43 8.23 84.25 7.87L84.25 7.87L84.25 7.87Q84.06 7.50 83.73 7.27L83.73 7.27L83.73 7.27Q83.41 7.03 82.99 6.90L82.99 6.90L82.99 6.90Q82.57 6.78 82.11 6.78L82.11 6.78L82.11 6.78Q81.70 6.78 81.34 6.88L81.34 6.88L81.34 6.88Q80.98 6.99 80.69 7.18L80.69 7.18L80.69 7.18Q80.40 7.38 80.23 7.66L80.23 7.66L80.23 7.66Q80.07 7.95 80.07 8.33L80.07 8.33L80.07 8.41L80.07 8.41Q80.07 8.82 80.23 9.11L80.23 9.11L80.23 9.11Q80.40 9.39 80.73 9.60L80.73 9.60L80.73 9.60Q81.06 9.80 81.55 9.93L81.55 9.93L81.55 9.93Q82.04 10.07 82.70 10.16L82.70 10.16L82.70 10.16Q84.24 10.40 84.97 11.07L84.97 11.07L84.97 11.07Q85.69 11.73 85.69 12.85L85.69 12.85L85.69 13.02L85.69 13.02Q85.69 13.65 85.48 14.17L85.48 14.17L85.48 14.17Q85.26 14.70 84.83 15.08L84.83 15.08L84.83 15.08Q84.41 15.46 83.78 15.67L83.78 15.67L83.78 15.67Q83.15 15.88 82.32 15.88L82.32 15.88L82.32 15.88Q81.38 15.88 80.66 15.60L80.66 15.60L80.66 15.60Q79.94 15.33 79.46 14.85L79.46 14.85L79.46 14.85Q78.97 14.36 78.72 13.71L78.72 13.71L78.72 13.71Q78.47 13.06 78.47 12.29L78.47 12.29L78.47 11.87L79.65 11.87L79.65 12.21L79.65 12.21Q79.65 13.50 80.35 14.14L80.35 14.14L80.35 14.14Q81.06 14.78 82.32 14.78L82.32 14.78L82.32 14.78Q83.41 14.78 83.97 14.30L83.97 14.30L83.97 14.30Q84.52 13.82 84.52 13.02L84.52 13.02L84.52 12.94L84.52 12.94Q84.52 12.17 83.95 11.76L83.95 11.76L83.95 11.76Q83.38 11.35 82.11 11.17L82.11 11.17L82.11 11.17Q81.37 11.07 80.77 10.87L80.77 10.87L80.77 10.87Q80.18 10.67 79.76 10.34L79.76 10.34L79.76 10.34Q79.34 10.01 79.11 9.55L79.11 9.55L79.11 9.55Q78.89 9.09 78.89 8.46L78.89 8.46L78.89 8.29L78.89 8.29Q78.89 7.71 79.13 7.24L79.13 7.24L79.13 7.24Q79.37 6.76 79.79 6.41L79.79 6.41L79.79 6.41Q80.22 6.06 80.81 5.87L80.81 5.87L80.81 5.87Q81.41 5.68 82.12 5.68L82.12 5.68L82.12 5.68Q82.95 5.68 83.60 5.92L83.60 5.92L83.60 5.92Q84.25 6.16 84.70 6.56L84.70 6.56L84.70 6.56Q85.15 6.96 85.38 7.50L85.38 7.50L85.38 7.50Q85.61 8.04 85.61 8.62L85.61 8.62L85.61 9.21L84.43 9.21ZM94.25 6.97L94.25 5.88L101.14 5.88L101.14 6.97L98.28 6.97L98.28 15.68L97.10 15.68L97.10 6.97L94.25 6.97ZM116.07 15.68L115.36 13.24L111.16 13.24L110.45 15.68L109.19 15.68L112.15 5.88L114.37 5.88L117.33 15.68L116.07 15.68ZM113.34 6.38L113.18 6.38L111.48 12.15L115.04 12.15L113.34 6.38ZM128.88 14.78L128.88 14.78L128.88 14.78Q129.49 14.78 129.91 14.58L129.91 14.58L129.91 14.58Q130.34 14.38 130.61 14.04L130.61 14.04L130.61 14.04Q130.89 13.69 131.02 13.25L131.02 13.25L131.02 13.25Q131.15 12.81 131.15 12.32L131.15 12.32L131.15 12.15L132.33 12.15L132.33 12.32L132.33 12.32Q132.33 13.06 132.10 13.71L132.10 13.71L132.10 13.71Q131.88 14.36 131.45 14.85L131.45 14.85L131.45 14.85Q131.01 15.33 130.37 15.60L130.37 15.60L130.37 15.60Q129.72 15.88 128.88 15.88L128.88 15.88L128.88 15.88Q127.26 15.88 126.35 14.85L126.35 14.85L126.35 14.85Q125.44 13.83 125.44 11.87L125.44 11.87L125.44 9.69L125.44 9.69Q125.44 7.78 126.35 6.73L126.35 6.73L126.35 6.73Q127.26 5.68 128.88 5.68L128.88 5.68L128.88 5.68Q129.72 5.68 130.37 5.96L130.37 5.96L130.37 5.96Q131.01 6.23 131.45 6.71L131.45 6.71L131.45 6.71Q131.88 7.20 132.10 7.85L132.10 7.85L132.10 7.85Q132.33 8.50 132.33 9.24L132.33 9.24L132.33 9.41L131.15 9.41L131.15 9.24L131.15 9.24Q131.14 8.76 131.00 8.32L131.00 8.32L131.00 8.32Q130.87 7.87 130.60 7.53L130.60 7.53L130.60 7.53Q130.33 7.18 129.91 6.98L129.91 6.98L129.91 6.98Q129.49 6.78 128.88 6.78L128.88 6.78L128.88 6.78Q127.75 6.78 127.18 7.60L127.18 7.60L127.18 7.60Q126.62 8.43 126.62 9.77L126.62 9.77L126.62 11.79L126.62 11.79Q126.62 13.23 127.18 14.01L127.18 14.01L127.18 14.01Q127.75 14.78 128.88 14.78ZM142.53 11.31L142.53 15.68L141.36 15.68L141.36 5.88L142.53 5.88L142.53 10.22L142.86 10.22L146.62 5.88L148.08 5.88L148.08 5.96L144.02 10.70L144.02 10.86L148.25 15.60L148.25 15.68L146.76 15.68L142.86 11.31L142.53 11.31ZM172.27 6.97L172.27 5.88L175.49 5.88L175.49 5.88Q177.31 5.88 178.15 6.75L178.15 6.75L178.15 6.75Q178.99 7.62 178.99 9.52L178.99 9.52L178.99 12.04L178.99 12.04Q178.99 13.94 178.15 14.81L178.15 14.81L178.15 14.81Q177.31 15.68 175.49 15.68L175.49 15.68L172.27 15.68L172.27 14.57L173.11 14.57L173.11 6.97L172.27 6.97ZM174.29 14.59L175.32 14.59L175.32 14.59Q175.97 14.59 176.44 14.46L176.44 14.46L176.44 14.46Q176.90 14.34 177.21 14.04L177.21 14.04L177.21 14.04Q177.52 13.73 177.67 13.23L177.67 13.23L177.67 13.23Q177.81 12.73 177.81 11.96L177.81 11.96L177.81 9.60L177.81 9.60Q177.81 8.83 177.67 8.33L177.67 8.33L177.67 8.33Q177.52 7.83 177.21 7.53L177.21 7.53L177.21 7.53Q176.90 7.22 176.44 7.10L176.44 7.10L176.44 7.10Q175.97 6.97 175.32 6.97L175.32 6.97L174.29 6.97L174.29 14.59ZM188.13 15.68L188.13 5.88L194.07 5.88L194.07 6.97L189.31 6.97L189.31 10.22L193.98 10.22L193.98 11.31L189.31 11.31L189.31 14.59L194.15 14.59L194.15 15.68L188.13 15.68ZM205.53 15.68L202.76 5.88L204.02 5.88L206.58 15.18L206.75 15.18L209.31 5.88L210.57 5.88L207.80 15.68L205.53 15.68ZM219.27 15.68L219.27 5.88L225.20 5.88L225.20 6.97L220.44 6.97L220.44 10.22L225.12 10.22L225.12 11.31L220.44 11.31L220.44 14.59L225.29 14.59L225.29 15.68L219.27 15.68ZM234.74 15.68L234.74 5.88L235.91 5.88L235.91 14.59L241.04 14.59L241.04 15.68L234.74 15.68ZM249.93 11.87L249.93 9.69L249.93 9.69Q249.93 7.78 250.84 6.73L250.84 6.73L250.84 6.73Q251.75 5.68 253.37 5.68L253.37 5.68L253.37 5.68Q255.00 5.68 255.91 6.73L255.91 6.73L255.91 6.73Q256.82 7.78 256.82 9.69L256.82 9.69L256.82 11.87L256.82 11.87Q256.82 13.83 255.91 14.85L255.91 14.85L255.91 14.85Q255.00 15.88 253.37 15.88L253.37 15.88L253.37 15.88Q251.75 15.88 250.84 14.85L250.84 14.85L250.84 14.85Q249.93 13.83 249.93 11.87L249.93 11.87ZM253.37 14.78L253.37 14.78L253.37 14.78Q254.51 14.78 255.07 14.01L255.07 14.01L255.07 14.01Q255.64 13.23 255.64 11.79L255.64 11.79L255.64 9.77L255.64 9.77Q255.64 8.43 255.07 7.60L255.07 7.60L255.07 7.60Q254.51 6.78 253.37 6.78L253.37 6.78L253.37 6.78Q252.24 6.78 251.67 7.60L251.67 7.60L251.67 7.60Q251.10 8.43 251.10 9.77L251.10 9.77L251.10 11.79L251.10 11.79Q251.10 13.23 251.67 14.01L251.67 14.01L251.67 14.01Q252.24 14.78 253.37 14.78ZM269.35 11.65L267.02 11.65L267.02 15.68L265.85 15.68L265.85 5.88L269.35 5.88L269.35 5.88Q270.10 5.88 270.66 6.10L270.66 6.10L270.66 6.10Q271.22 6.31 271.59 6.68L271.59 6.68L271.59 6.68Q271.96 7.04 272.15 7.53L272.15 7.53L272.15 7.53Q272.34 8.01 272.34 8.54L272.34 8.54L272.34 8.96L272.34 8.96Q272.34 9.49 272.15 9.98L272.15 9.98L272.15 9.98Q271.96 10.47 271.59 10.84L271.59 10.84L271.59 10.84Q271.21 11.21 270.65 11.43L270.65 11.43L270.65 11.43Q270.09 11.65 269.35 11.65L269.35 11.65ZM267.02 6.97L267.02 10.56L269.21 10.56L269.21 10.56Q271.17 10.56 271.17 8.88L271.17 8.88L271.17 8.62L271.17 8.62Q271.17 7.88 270.68 7.43L270.68 7.43L270.68 7.43Q270.20 6.97 269.21 6.97L269.21 6.97L267.02 6.97ZM281.54 15.68L281.54 5.88L287.48 5.88L287.48 6.97L282.72 6.97L282.72 10.22L287.39 10.22L287.39 11.31L282.72 11.31L282.72 14.59L287.56 14.59L287.56 15.68L281.54 15.68ZM303.14 12.15L303.14 15.68L301.97 15.68L301.97 12.40L301.97 12.40Q301.97 12.04 301.80 11.84L301.80 11.84L301.80 11.84Q301.63 11.65 301.21 11.65L301.21 11.65L298.16 11.65L298.16 15.68L296.98 15.68L296.98 5.88L300.48 5.88L300.48 5.88Q301.24 5.88 301.80 6.10L301.80 6.10L301.80 6.10Q302.36 6.31 302.73 6.68L302.73 6.68L302.73 6.68Q303.10 7.04 303.29 7.53L303.29 7.53L303.29 7.53Q303.48 8.01 303.48 8.54L303.48 8.54L303.48 8.96L303.48 8.96Q303.48 9.51 303.18 10.05L303.18 10.05L303.18 10.05Q302.88 10.60 302.25 10.89L302.25 10.89L302.25 11.06L302.25 11.06Q302.67 11.13 302.90 11.40L302.90 11.40L302.90 11.40Q303.14 11.66 303.14 12.15L303.14 12.15ZM298.16 6.97L298.16 10.56L300.34 10.56L300.34 10.56Q301.34 10.56 301.82 10.13L301.82 10.13L301.82 10.13Q302.30 9.70 302.30 8.88L302.30 8.88L302.30 8.62L302.30 8.62Q302.30 7.88 301.82 7.43L301.82 7.43L301.82 7.43Q301.34 6.97 300.34 6.97L300.34 6.97L298.16 6.97Z"></path></g></svg>